<svg xmlns="http://www.w3.org/2000/svg" version="1.1" xmlns:xlink="http://www.w3.org/1999/xlink" xmlns:svgjs="http://svgjs.com/svgjs" width="1440" height="560" preserveAspectRatio="none" viewBox="0 0 1440 560"><g mask="url(&quot;#SvgjsMask1009&quot;)" fill="none"><path d="M1488 560L0 560 L0 311.7Q89.83 281.53, 120 371.37Q161.11 292.48, 240 333.58Q286.71 308.29, 312 355.01Q388.26 311.27, 432 387.53Q502.26 337.79, 552 408.06Q591.93 328, 672 367.93Q688.55 312.49, 744 329.04Q795.4 260.44, 864 311.84Q960.35 288.18, 984 384.53Q1019.89 300.42, 1104 336.31Q1124.13 284.44, 1176 304.58Q1224.99 233.57, 1296 282.56Q1398.44 265, 1416 367.45Q1416.55 296, 1488 296.55z" fill="rgba(131, 208, 203, 1)"></path><path d="M1488 560L0 560 L0 473.66Q55.69 409.35, 120 465.04Q167.83 440.87, 192 488.7Q259.37 436.06, 312 503.43Q323.15 442.58, 384 453.72Q396.79 394.51, 456 407.31Q503.81 335.12, 576 382.93Q617.09 352.02, 648 393.12Q728.68 353.81, 768 434.49Q821.97 416.46, 840 470.42Q846 404.42, 912 410.42Q953.87 380.29, 984 422.16Q1070.42 388.59, 1104 475.01Q1108.33 407.34, 1176 411.67Q1228.98 344.65, 1296 397.64Q1375.51 357.15, 1416 436.67Q1422.46 371.13, 1488 377.59z" fill="rgba(20, 82, 119, 1)"></path><path d="M1560 560L0 560 L0 496.51Q98.72 475.23, 120 573.94Q164.99 546.93, 192 591.92Q192.61 520.53, 264 521.14Q318.72 455.86, 384 510.57Q474.79 481.36, 504 572.14Q552.88 501.02, 624 549.91Q645.52 499.43, 696 520.95Q731.19 436.14, 816 471.33Q885.15 420.48, 936 489.63Q984.67 466.3, 1008 514.97Q1078.77 465.74, 1128 536.51Q1211.63 500.13, 1248 583.76Q1277.9 541.66, 1320 571.56Q1340.28 471.84, 1440 492.11Q1507.74 439.86, 1560 507.6z" fill="rgba(255, 255, 255, 1)"></path></g><defs><mask id="SvgjsMask1009"><rect width="1440" height="560" fill="#ffffff"></rect></mask></defs></svg>