<svg xmlns="http://www.w3.org/2000/svg" version="1.1" xmlns:xlink="http://www.w3.org/1999/xlink" xmlns:svgjs="http://svgjs.com/svgjs" width="1440" height="563" preserveAspectRatio="none" viewBox="0 0 1440 563"><g clip-path="url(&quot;#SvgjsClipPath1359&quot;)" fill="none"><circle r="93.835" cx="72.2" cy="-28.74" stroke="#ebf2fa" stroke-opacity="1" stroke-width="2"></circle><circle r="93.835" cx="307.08" cy="348.76" stroke="#ebf2fa" stroke-opacity="1" stroke-width="2"></circle><circle r="93.835" cx="761.95" cy="686.7" stroke="#ebf2fa" stroke-opacity="1" stroke-width="2"></circle><circle r="173.13" cx="54.47" cy="116.07" stroke="#ebf2fa" stroke-opacity="1" stroke-width="2"></circle><circle r="142.505" cx="1012.17" cy="216.43" stroke="#ebf2fa" stroke-opacity="1" stroke-width="2"></circle><circle r="62.51" cx="1329.96" cy="124.2" stroke="#ebf2fa" stroke-opacity="1" stroke-width="2"></circle><circle r="66.295" cx="1161.22" cy="23.83" stroke="#ebf2fa" stroke-opacity="1" stroke-width="2"></circle><circle r="172.785" cx="1189.42" cy="87.93" stroke="#ebf2fa" stroke-opacity="1" stroke-width="2"></circle><circle r="170" cx="394.85" cy="517.33" stroke="#ebf2fa" stroke-opacity="1" stroke-width="2"></circle><circle r="159.545" cx="1374.17" cy="511.32" stroke="#ebf2fa" stroke-opacity="1" stroke-width="2"></circle><circle r="109.52" cx="990.31" cy="321.42" stroke="#ebf2fa" stroke-opacity="1" stroke-width="2"></circle><circle r="56.85" cx="862.14" cy="245.75" stroke="#ebf2fa" stroke-opacity="1" stroke-width="2"></circle><circle r="58.77" cx="830.17" cy="75.65" stroke="#ebf2fa" stroke-opacity="1" stroke-width="2"></circle><circle r="62.235" cx="969" cy="424.64" stroke="#ebf2fa" stroke-opacity="1" stroke-width="2"></circle><circle r="176.21" cx="1155.43" cy="537.32" stroke="#ebf2fa" stroke-opacity="1" stroke-width="2"></circle><circle r="68.75" cx="484.76" cy="463.79" stroke="#ebf2fa" stroke-opacity="1" stroke-width="2"></circle><circle r="130.655" cx="100.92" cy="460.38" stroke="#ebf2fa" stroke-opacity="1" stroke-width="2"></circle><circle r="120.915" cx="346" cy="83.52" stroke="#ebf2fa" stroke-opacity="1" stroke-width="2"></circle><circle r="179.315" cx="1348.25" cy="340.55" stroke="#ebf2fa" stroke-opacity="1" stroke-width="2"></circle><circle r="117.41" cx="609.93" cy="245.54" stroke="#ebf2fa" stroke-opacity="1" stroke-width="2"></circle><circle r="171.385" cx="678.61" cy="0.53" stroke="#ebf2fa" stroke-opacity="1" stroke-width="2"></circle><circle r="180.115" cx="1296.17" cy="48.08" stroke="#ebf2fa" stroke-opacity="1" stroke-width="2"></circle><circle r="90.595" cx="907.21" cy="245.5" stroke="#ebf2fa" stroke-opacity="1" stroke-width="2"></circle><circle r="69.465" cx="1347.38" cy="424.42" stroke="#ebf2fa" stroke-opacity="1" stroke-width="2"></circle><circle r="87.89" cx="332.2" cy="9.64" stroke="#ebf2fa" stroke-opacity="1" stroke-width="2"></circle></g><defs><clipPath id="SvgjsClipPath1359"><rect width="1440" height="563" x="0" y="0"></rect></clipPath></defs></svg>